<svg xmlns="http://www.w3.org/2000/svg" xmlns:xlink="http://www.w3.org/1999/xlink" xmlns:lucid="lucid" width="2202.5" height="1083"><g transform="translate(0.5 -19)" lucid:page-tab-id="0_0"><path d="M661.2 368a8 8 0 0 1 8-8h837.72a8 8 0 0 1 8 8v704a8 8 0 0 1-8 8h-837.7a8 8 0 0 1-8-8z" stroke="#3a414a" stroke-width="4" fill="#fbf0ff"/><path d="M1501.43 368a8 8 0 0 1 8-8H2172a8 8 0 0 1 8 8v704a8 8 0 0 1-8 8h-662.57a8 8 0 0 1-8-8z" stroke="#3a414a" stroke-width="4" fill="#ced4db"/><path d="M241.2 368a8 8 0 0 1 8-8H672a8 8 0 0 1 8 8v704a8 8 0 0 1-8 8H249.2a8 8 0 0 1-8-8z" stroke="#3a414a" stroke-width="4" fill="#e8e2c8"/><path d="M21 435.12a8 8 0 0 1 8-8h144a8 8 0 0 1 8 8v117.76c-26.72-21-43.36-21-53.44-21-16 0-37.28 21-53.28 21-9.92 0-26.72 0-53.28-21z" stroke="#3a414a" fill="#fff7a1"/><use xlink:href="#a" transform="matrix(1,0,0,1,26.000024999999823,432.12) translate(-1.5861111111110944 21.16666666666667)"/><use xlink:href="#b" transform="matrix(1,0,0,1,26.000024999999823,432.12) translate(20.175462962962982 52.766666666666666)"/><use xlink:href="#c" transform="matrix(1,0,0,1,26.000024999999823,432.12) translate(4.229166666666686 84.36666666666666)"/><use xlink:href="#d" transform="matrix(1,0,0,1,26.000024999999823,432.12) translate(53.75046296296297 84.36666666666666)"/><path d="M20 931.6a8 8 0 0 1 8-8h144a8 8 0 0 1 8 8v117.77c-26.72-21-43.36-21-53.44-21-16 0-37.28 21-53.28 21-9.92 0-26.72 0-53.28-21z" stroke="#3a414a" fill="#fff7a1"/><use xlink:href="#e" transform="matrix(1,0,0,1,25,928.6115584924547) translate(14.360185185185216 21.16666666666667)"/><use xlink:href="#f" transform="matrix(1,0,0,1,25,928.6115584924547) translate(23.979166666666686 52.766666666666666)"/><use xlink:href="#g" transform="matrix(1,0,0,1,25,928.6115584924547) translate(83.81435185185185 52.766666666666666)"/><use xlink:href="#h" transform="matrix(1,0,0,1,25,928.6115584924547) translate(17.359259259259275 84.36666666666666)"/><path d="M320 771.4a8 8 0 0 1 8-8h244a8 8 0 0 1 8 8v104.53a8 8 0 0 1-8 8H328a8 8 0 0 1-8-8z" stroke="#3a414a" fill="#6db1ff"/><use xlink:href="#i" transform="matrix(1,0,0,1,332,775.3981241094343) translate(34.259567901234604 32.411111111111126)"/><use xlink:href="#j" transform="matrix(1,0,0,1,332,775.3981241094343) translate(31.410493827160536 80.67777777777778)"/><path d="M260 468.5a8 8 0 0 1 8-8h128a8 8 0 0 1 8 8v94c-24.05-17.03-39.02-17.03-48.1-17.03-14.4 0-33.55 17.03-47.95 17.03-8.93 0-24.05 0-47.95-17.03z" stroke="#3a414a" fill="#ffe342"/><path d="M268 477.5a8 8 0 0 1 8-8h128a8 8 0 0 1 8 8v94c-24.05-17.03-39.02-17.03-48.1-17.03-14.4 0-33.55 17.03-47.95 17.03-8.93 0-24.05 0-47.95-17.03z" stroke="#3a414a" fill="#ffe342"/><path d="M276 486.5a8 8 0 0 1 8-8h128a8 8 0 0 1 8 8v94c-24.05-17.03-39.02-17.03-48.1-17.03-14.4 0-33.55 17.03-47.95 17.03-8.93 0-24.05 0-47.95-17.03z" stroke="#3a414a" fill="#ffe342"/><use xlink:href="#k" transform="matrix(1,0,0,1,281,483.49995) translate(5.6652777777777885 42.766666666666666)"/><use xlink:href="#l" transform="matrix(1,0,0,1,281,483.49995) translate(71.27916666666667 42.766666666666666)"/><path d="M480 440.55a8 8 0 0 1 8-8h128a8 8 0 0 1 8 8V558.3c-24.05-21-39.02-21-48.1-21-14.4 0-33.55 21-47.95 21-8.93 0-24.05 0-47.95-21z" stroke="#3a414a" fill="#ffe342"/><path d="M488 451.64a8 8 0 0 1 8-8h128a8 8 0 0 1 8 8V569.4c-24.05-21-39.02-21-48.1-21-14.4 0-33.55 21-47.95 21-8.93 0-24.05 0-47.95-21z" stroke="#3a414a" fill="#ffe342"/><path d="M496 462.74a8 8 0 0 1 8-8h128a8 8 0 0 1 8 8V580.5c-24.05-21-39.02-21-48.1-21-14.4 0-33.55 21-47.95 21-8.93 0-24.05 0-47.95-21z" stroke="#3a414a" fill="#ffe342"/><use xlink:href="#m" transform="matrix(1,0,0,1,501,459.73995) translate(13.19953703703706 21.16666666666667)"/><use xlink:href="#n" transform="matrix(1,0,0,1,501,459.73995) translate(13.675000000000011 52.766666666666666)"/><use xlink:href="#o" transform="matrix(1,0,0,1,501,459.73995) translate(79.43518518518518 52.766666666666666)"/><use xlink:href="#p" transform="matrix(1,0,0,1,501,459.73995) translate(22.452777777777783 84.36666666666666)"/><path d="M963.93 771.4a8 8 0 0 1 8-8h244a8 8 0 0 1 8 8v104.53a8 8 0 0 1-8 8h-244a8 8 0 0 1-8-8z" stroke="#3a414a" fill="#6db1ff"/><use xlink:href="#q" transform="matrix(1,0,0,1,975.9267986073278,775.3981241094343) translate(40.96327160493831 32.411111111111126)"/><use xlink:href="#r" transform="matrix(1,0,0,1,975.9267986073278,775.3981241094343) translate(21.96944444444449 80.67777777777778)"/><path d="M1717.85 771.4a8 8 0 0 1 8-8h244a8 8 0 0 1 8 8v104.53a8 8 0 0 1-8 8h-244a8 8 0 0 1-8-8z" stroke="#3a414a" fill="#6db1ff"/><use xlink:href="#s" transform="matrix(1,0,0,1,1729.8535972146556,775.3981241094343) translate(49.957407407407445 32.411111111111126)"/><use xlink:href="#t" transform="matrix(1,0,0,1,1729.8535972146556,775.3981241094343) translate(14.260185185185236 80.67777777777778)"/><path d="M450 760.9v-79.46a12 12 0 0 0-12-12h-86a12 12 0 0 1-12-12v-58.72" stroke="#3a414a" stroke-width="4" fill="none"/><path d="M452 762.9h-4v-2.05h4z" stroke="#3a414a" stroke-width=".05" fill="#3a414a"/><path d="M340 582.45l4.63 14.27h-9.26z" stroke="#3a414a" stroke-width="4" fill="#3a414a"/><path d="M450 760.9V682a12 12 0 0 1 12-12h86a12 12 0 0 0 12-12v-60.28" stroke="#3a414a" stroke-width="4" fill="none"/><path d="M452 762.9h-4v-2.05h4z" stroke="#3a414a" stroke-width=".05" fill="#3a414a"/><path d="M560 581.45l4.63 14.27h-9.26z" stroke="#3a414a" stroke-width="4" fill="#3a414a"/><path d="M582.5 823.66h358.2" stroke="#3a414a" stroke-width="4" fill="none"/><path d="M582.55 825.66h-2.05v-4h2.05z" stroke="#3a414a" stroke-width=".05" fill="#3a414a"/><path d="M956.96 823.66l-14.27 4.64v-9.27z" stroke="#3a414a" stroke-width="4" fill="#3a414a"/><path d="M1226.43 823.66h468.2" stroke="#3a414a" stroke-width="4" fill="none"/><path d="M1226.48 825.66h-2.05v-4h2.05z" stroke="#3a414a" stroke-width=".05" fill="#3a414a"/><path d="M1710.88 823.66l-14.26 4.64v-9.27z" stroke="#3a414a" stroke-width="4" fill="#3a414a"/><path d="M721.43 468a8 8 0 0 1 8-8h128a8 8 0 0 1 8 8v94c-24.05-17.03-39.03-17.03-48.1-17.03-14.4 0-33.55 17.03-47.95 17.03-8.93 0-24.05 0-47.95-17.03z" stroke="#3a414a" fill="#ffe342"/><path d="M729.43 477a8 8 0 0 1 8-8h128a8 8 0 0 1 8 8v94c-24.05-17.03-39.03-17.03-48.1-17.03-14.4 0-33.55 17.03-47.95 17.03-8.93 0-24.05 0-47.95-17.03z" stroke="#3a414a" fill="#ffe342"/><path d="M737.43 486a8 8 0 0 1 8-8h128a8 8 0 0 1 8 8v94c-24.05-17.03-39.03-17.03-48.1-17.03-14.4 0-33.55 17.03-47.95 17.03-8.93 0-24.05 0-47.95-17.03z" stroke="#3a414a" fill="#ffe342"/><use xlink:href="#u" transform="matrix(1,0,0,1,742.4267986073278,483) translate(2.995370370370395 26.96666666666667)"/><use xlink:href="#o" transform="matrix(1,0,0,1,742.4267986073278,483) translate(90.1148148148148 26.96666666666667)"/><use xlink:href="#p" transform="matrix(1,0,0,1,742.4267986073278,483) translate(22.452777777777783 58.56666666666666)"/><path d="M1111.43 440.05a8 8 0 0 1 8-8h128a8 8 0 0 1 8 8V557.8c-24.05-21-39.03-21-48.1-21-14.4 0-33.55 21-47.95 21-8.93 0-24.05 0-47.95-21z" stroke="#3a414a" fill="#ffe342"/><path d="M1119.43 451.14a8 8 0 0 1 8-8h128a8 8 0 0 1 8 8V568.9c-24.05-21-39.03-21-48.1-21-14.4 0-33.55 21-47.95 21-8.93 0-24.05 0-47.95-21z" stroke="#3a414a" fill="#ffe342"/><path d="M1127.43 462.24a8 8 0 0 1 8-8h128a8 8 0 0 1 8 8V580c-24.05-21-39.03-21-48.1-21-14.4 0-33.55 21-47.95 21-8.93 0-24.05 0-47.95-21z" stroke="#3a414a" fill="#ffe342"/><use xlink:href="#v" transform="matrix(1,0,0,1,1132.4267986073278,459.24) translate(21.721296296296302 21.16666666666667)"/><use xlink:href="#w" transform="matrix(1,0,0,1,1132.4267986073278,459.24) translate(19.270833333333343 52.766666666666666)"/><use xlink:href="#o" transform="matrix(1,0,0,1,1132.4267986073278,459.24) translate(73.83935185185184 52.766666666666666)"/><use xlink:href="#p" transform="matrix(1,0,0,1,1132.4267986073278,459.24) translate(22.452777777777783 84.36666666666666)"/><path d="M916.43 440.55a8 8 0 0 1 8-8h128a8 8 0 0 1 8 8V558.3c-24.05-21-39.03-21-48.1-21-14.4 0-33.55 21-47.95 21-8.93 0-24.05 0-47.95-21z" stroke="#3a414a" fill="#ffe342"/><path d="M924.43 451.64a8 8 0 0 1 8-8h128a8 8 0 0 1 8 8V569.4c-24.05-21-39.03-21-48.1-21-14.4 0-33.55 21-47.95 21-8.93 0-24.05 0-47.95-21z" stroke="#3a414a" fill="#ffe342"/><path d="M932.43 462.74a8 8 0 0 1 8-8h128a8 8 0 0 1 8 8V580.5c-24.05-21-39.03-21-48.1-21-14.4 0-33.55 21-47.95 21-8.93 0-24.05 0-47.95-21z" stroke="#3a414a" fill="#ffe342"/><use xlink:href="#x" transform="matrix(1,0,0,1,937.4267986073278,459.73995) translate(7.128240740740765 21.16666666666667)"/><use xlink:href="#f" transform="matrix(1,0,0,1,937.4267986073278,459.73995) translate(16.637500000000017 52.766666666666666)"/><use xlink:href="#o" transform="matrix(1,0,0,1,937.4267986073278,459.73995) translate(76.47268518518518 52.766666666666666)"/><use xlink:href="#p" transform="matrix(1,0,0,1,937.4267986073278,459.73995) translate(22.452777777777783 84.36666666666666)"/><path d="M1306.43 468a8 8 0 0 1 8-8h128a8 8 0 0 1 8 8v94c-24.05-17.03-39.03-17.03-48.1-17.03-14.4 0-33.55 17.03-47.95 17.03-8.93 0-24.05 0-47.95-17.03z" stroke="#3a414a" fill="#ffe342"/><path d="M1314.43 477a8 8 0 0 1 8-8h128a8 8 0 0 1 8 8v94c-24.05-17.03-39.03-17.03-48.1-17.03-14.4 0-33.55 17.03-47.95 17.03-8.93 0-24.05 0-47.95-17.03z" stroke="#3a414a" fill="#ffe342"/><path d="M1322.43 486a8 8 0 0 1 8-8h128a8 8 0 0 1 8 8v94c-24.05-17.03-39.03-17.03-48.1-17.03-14.4 0-33.55 17.03-47.95 17.03-8.93 0-24.05 0-47.95-17.03z" stroke="#3a414a" fill="#ffe342"/><use xlink:href="#k" transform="matrix(1,0,0,1,1327.4267986073278,483) translate(5.6652777777777885 42.766666666666666)"/><use xlink:href="#l" transform="matrix(1,0,0,1,1327.4267986073278,483) translate(71.27916666666667 42.766666666666666)"/><path d="M1093.93 760.9v-79.7a12 12 0 0 0-12-12h-268.5a12 12 0 0 1-12-12V598.2" stroke="#3a414a" stroke-width="4" fill="none"/><path d="M1095.93 762.9h-4v-2.05h4z" stroke="#3a414a" stroke-width=".05" fill="#3a414a"/><path d="M801.43 581.95l4.63 14.27h-9.27z" stroke="#3a414a" stroke-width="4" fill="#3a414a"/><path d="M1093.93 760.9V682a12 12 0 0 0-12-12h-73.5a12 12 0 0 1-12-12v-60.28" stroke="#3a414a" stroke-width="4" fill="none"/><path d="M1095.93 762.9h-4v-2.05h4z" stroke="#3a414a" stroke-width=".05" fill="#3a414a"/><path d="M996.43 581.45l4.63 14.27h-9.27z" stroke="#3a414a" stroke-width="4" fill="#3a414a"/><path d="M1093.93 760.9V682a12 12 0 0 1 12-12h73.5a12 12 0 0 0 12-12v-60.78" stroke="#3a414a" stroke-width="4" fill="none"/><path d="M1095.93 762.9h-4v-2.05h4z" stroke="#3a414a" stroke-width=".05" fill="#3a414a"/><path d="M1191.43 580.95l4.63 14.27h-9.27z" stroke="#3a414a" stroke-width="4" fill="#3a414a"/><path d="M1093.93 760.9v-79.7a12 12 0 0 1 12-12h268.5a12 12 0 0 0 12-12V598.2" stroke="#3a414a" stroke-width="4" fill="none"/><path d="M1095.93 762.9h-4v-2.05h4z" stroke="#3a414a" stroke-width=".05" fill="#3a414a"/><path d="M1386.43 581.95l4.63 14.27h-9.27z" stroke="#3a414a" stroke-width="4" fill="#3a414a"/><path d="M1547.85 401.72a8 8 0 0 1 8-8h128a8 8 0 0 1 8 8V557.4c-24.04-27.34-39.02-27.34-48.1-27.34-14.4 0-33.54 27.34-47.94 27.34-8.92 0-24.04 0-47.95-27.34z" stroke="#3a414a" fill="#ffe342"/><path d="M1555.85 416.16a8 8 0 0 1 8-8h128a8 8 0 0 1 8 8v155.68c-24.04-27.34-39.02-27.34-48.1-27.34-14.4 0-33.54 27.34-47.94 27.34-8.92 0-24.04 0-47.95-27.34z" stroke="#3a414a" fill="#ffe342"/><path d="M1563.85 430.6a8 8 0 0 1 8-8h128a8 8 0 0 1 8 8v155.68c-24.04-27.33-39.02-27.33-48.1-27.33-14.4 0-33.54 27.33-47.94 27.33-8.92 0-24.04 0-47.95-27.33z" stroke="#3a414a" fill="#ffe342"/><use xlink:href="#y" transform="matrix(1,0,0,1,1568.8535972146556,427.6023529411765) translate(12.102314814814832 21.366666666666674)"/><use xlink:href="#z" transform="matrix(1,0,0,1,1568.8535972146556,427.6023529411765) translate(106.53657407407405 21.366666666666674)"/><use xlink:href="#w" transform="matrix(1,0,0,1,1568.8535972146556,427.6023529411765) translate(2.812500000000014 52.96666666666667)"/><use xlink:href="#A" transform="matrix(1,0,0,1,1568.8535972146556,427.6023529411765) translate(57.381018518518516 52.96666666666667)"/><use xlink:href="#B" transform="matrix(1,0,0,1,1568.8535972146556,427.6023529411765) translate(80.05694444444444 52.96666666666667)"/><use xlink:href="#A" transform="matrix(1,0,0,1,1568.8535972146556,427.6023529411765) translate(5.299537037037055 84.56666666666666)"/><use xlink:href="#f" transform="matrix(1,0,0,1,1568.8535972146556,427.6023529411765) translate(27.975462962962975 84.56666666666666)"/><use xlink:href="#o" transform="matrix(1,0,0,1,1568.8535972146556,427.6023529411765) translate(87.81064814814815 84.56666666666666)"/><use xlink:href="#p" transform="matrix(1,0,0,1,1568.8535972146556,427.6023529411765) translate(22.452777777777783 116.16666666666666)"/><path d="M1987.85 468.5a8 8 0 0 1 8-8h128a8 8 0 0 1 8 8v94c-24.04-17.03-39.02-17.03-48.1-17.03-14.4 0-33.54 17.03-47.94 17.03-8.92 0-24.04 0-47.95-17.03z" stroke="#3a414a" fill="#ffe342"/><path d="M1995.85 477.5a8 8 0 0 1 8-8h128a8 8 0 0 1 8 8v94c-24.04-17.03-39.02-17.03-48.1-17.03-14.4 0-33.54 17.03-47.94 17.03-8.92 0-24.04 0-47.95-17.03z" stroke="#3a414a" fill="#ffe342"/><path d="M2003.85 486.5a8 8 0 0 1 8-8h128a8 8 0 0 1 8 8v94c-24.04-17.03-39.02-17.03-48.1-17.03-14.4 0-33.54 17.03-47.94 17.03-8.92 0-24.04 0-47.95-17.03z" stroke="#3a414a" fill="#ffe342"/><use xlink:href="#C" transform="matrix(1,0,0,1,2008.8535972146556,483.49995) translate(-0.9180555555555259 26.96666666666667)"/><use xlink:href="#l" transform="matrix(1,0,0,1,2008.8535972146556,483.49995) translate(38.47222222222223 58.56666666666666)"/><path d="M1767.85 468.5a8 8 0 0 1 8-8h128a8 8 0 0 1 8 8v94c-24.04-17.03-39.02-17.03-48.1-17.03-14.4 0-33.54 17.03-47.94 17.03-8.92 0-24.04 0-47.95-17.03z" stroke="#3a414a" fill="#ffe342"/><path d="M1775.85 477.5a8 8 0 0 1 8-8h128a8 8 0 0 1 8 8v94c-24.04-17.03-39.02-17.03-48.1-17.03-14.4 0-33.54 17.03-47.94 17.03-8.92 0-24.04 0-47.95-17.03z" stroke="#3a414a" fill="#ffe342"/><path d="M1783.85 486.5a8 8 0 0 1 8-8h128a8 8 0 0 1 8 8v94c-24.04-17.03-39.02-17.03-48.1-17.03-14.4 0-33.54 17.03-47.94 17.03-8.92 0-24.04 0-47.95-17.03z" stroke="#3a414a" fill="#ffe342"/><use xlink:href="#k" transform="matrix(1,0,0,1,1788.8535972146556,483.49995) translate(5.6652777777777885 42.766666666666666)"/><use xlink:href="#l" transform="matrix(1,0,0,1,1788.8535972146556,483.49995) translate(71.27916666666667 42.766666666666666)"/><path d="M1847.85 760.9V682a12 12 0 0 0-12-12h-196a12 12 0 0 1-12-12v-56.3" stroke="#3a414a" stroke-width="4" fill="none"/><path d="M1849.85 762.9h-4v-2.05h4z" stroke="#3a414a" stroke-width=".05" fill="#3a414a"/><path d="M1627.85 585.44l4.64 14.27h-9.28z" stroke="#3a414a" stroke-width="4" fill="#3a414a"/><path d="M1847.85 760.9V598.72" stroke="#3a414a" stroke-width="4" fill="none"/><path d="M1849.85 762.9h-4v-2.05h4z" stroke="#3a414a" stroke-width=".05" fill="#3a414a"/><path d="M1847.85 582.45l4.64 14.27h-9.28z" stroke="#3a414a" stroke-width="4" fill="#3a414a"/><path d="M1847.85 760.9V682a12 12 0 0 1 12-12h196a12 12 0 0 0 12-12v-59.28" stroke="#3a414a" stroke-width="4" fill="none"/><path d="M1849.85 762.9h-4v-2.05h4z" stroke="#3a414a" stroke-width=".05" fill="#3a414a"/><path d="M2067.85 582.45l4.64 14.27h-9.28z" stroke="#3a414a" stroke-width="4" fill="#3a414a"/><path d="M101 544.7v266.96a12 12 0 0 0 12 12h183.76" stroke="#3a414a" stroke-width="4" fill="none"/><path d="M103 544.74h-4v-1l4-2.1z" stroke="#3a414a" stroke-width=".05" fill="#3a414a"/><path d="M313.03 823.66l-14.27 4.64v-9.27z" stroke="#3a414a" stroke-width="4" fill="#3a414a"/><path d="M100 921.1v-85.44a12 12 0 0 1 12-12h184.76" stroke="#3a414a" stroke-width="4" fill="none"/><path d="M102 923.1h-4v-2.04h4z" stroke="#3a414a" stroke-width=".05" fill="#3a414a"/><path d="M313.03 823.66l-14.27 4.64v-9.27z" stroke="#3a414a" stroke-width="4" fill="#3a414a"/><path d="M21 594.62a8 8 0 0 1 8-8h144a8 8 0 0 1 8 8v129.76c-26.72-23-43.36-23-53.44-23-16 0-37.28 23-53.28 23-9.92 0-26.72 0-53.28-23z" stroke="#3a414a" fill="#fff7a1"/><g><use xlink:href="#D" transform="matrix(1,0,0,1,26.000024999999823,591.6171861641516) translate(-1.586111111111066 26.16666666666668)"/><use xlink:href="#E" transform="matrix(1,0,0,1,26.000024999999823,591.6171861641516) translate(27.782870370370404 57.76666666666666)"/><use xlink:href="#F" transform="matrix(1,0,0,1,26.000024999999823,591.6171861641516) translate(114.90231481481479 57.76666666666666)"/><use xlink:href="#G" transform="matrix(1,0,0,1,26.000024999999823,591.6171861641516) translate(7.155092592592638 89.36666666666665)"/><use xlink:href="#H" transform="matrix(1,0,0,1,26.000024999999823,591.6171861641516) translate(100.6384259259259 89.36666666666665)"/></g><path d="M21 766.1a8 8 0 0 1 8-8h144a8 8 0 0 1 8 8v117.77c-26.72-21-43.36-21-53.44-21-16 0-37.28 21-53.28 21-9.92 0-26.72 0-53.28-21z" stroke="#3a414a" fill="#fff7a1"/><g><use xlink:href="#e" transform="matrix(1,0,0,1,26.000024999999823,763.1143723283031) translate(14.360185185185216 21.16666666666667)"/><use xlink:href="#I" transform="matrix(1,0,0,1,26.000024999999823,763.1143723283031) translate(10.337037037037064 52.766666666666666)"/><use xlink:href="#g" transform="matrix(1,0,0,1,26.000024999999823,763.1143723283031) translate(97.45648148148148 52.766666666666666)"/><use xlink:href="#h" transform="matrix(1,0,0,1,26.000024999999823,763.1143723283031) translate(17.359259259259275 84.36666666666666)"/></g><path d="M1306.43 56a16 16 0 0 1 16-16H1784a16 16 0 0 1 16 16v277.42a16 16 0 0 1-16 16h-461.57a16 16 0 0 1-16-16z" stroke="#dfe3e8" stroke-width="2" fill="#fff"/><path d="M1353.9 142.26c0-.77.63-1.4 1.4-1.4h25.14c.78 0 1.4.63 1.4 1.4v19.55c-4.66-3.5-7.57-3.5-9.33-3.5-2.78 0-6.5 3.5-9.3 3.5-1.72 0-4.65 0-9.3-3.5z" stroke="#3a414a" fill="#fff7a1"/><path d="M1353.9 199.83c0-.77.63-1.4 1.4-1.4h25.14c.78 0 1.4.63 1.4 1.4V218c0 .76-.62 1.38-1.4 1.38h-25.13c-.76 0-1.4-.62-1.4-1.4z" stroke="#3a414a" fill="#6db1ff"/><path d="M1353.9 257.4c0-.77.63-1.4 1.4-1.4h22.35c.77 0 1.4.63 1.4 1.4v16.4c-4.2-2.96-6.8-2.96-8.4-2.96-2.5 0-5.86 2.97-8.37 2.97-1.56 0-4.2 0-8.37-2.96z" stroke="#3a414a" fill="#ffe342"/><path d="M1355.3 258.97c0-.77.63-1.4 1.4-1.4h22.35c.77 0 1.4.63 1.4 1.4v16.4c-4.2-2.96-6.82-2.96-8.4-2.96-2.5 0-5.86 2.98-8.37 2.98-1.56 0-4.2 0-8.37-2.97z" stroke="#3a414a" fill="#ffe342"/><path d="M1356.7 260.55c0-.78.63-1.4 1.4-1.4h22.34c.78 0 1.4.62 1.4 1.4v16.4c-4.2-2.97-6.8-2.97-8.4-2.97-2.5 0-5.85 2.97-8.37 2.97-1.55 0-4.2 0-8.37-2.97z" stroke="#3a414a" fill="#ffe342"/><g><use xlink:href="#J" transform="matrix(1,0,0,1,1351.116724472607,73.51744439895953) translate(0 33.31501532968525)"/><use xlink:href="#K" transform="matrix(1,0,0,1,1351.116724472607,73.51744439895953) translate(264.9256273096941 33.31501532968525)"/></g><g><use xlink:href="#L" transform="matrix(1,0,0,1,1401.3928910710465,134.58001784339092) translate(0 29.037237551907477)"/><use xlink:href="#M" transform="matrix(1,0,0,1,1401.3928910710465,134.58001784339092) translate(75.06033125919025 29.037237551907477)"/></g><g><use xlink:href="#N" transform="matrix(1,0,0,1,1401.3928910710465,192.1510122521832) translate(0 29.037237551907477)"/><use xlink:href="#O" transform="matrix(1,0,0,1,1401.3928910710465,192.1510122521832) translate(113.66718196832294 29.037237551907477)"/><use xlink:href="#P" transform="matrix(1,0,0,1,1401.3928910710465,192.1510122521832) translate(181.19071767075025 29.037237551907477)"/><use xlink:href="#Q" transform="matrix(1,0,0,1,1401.3928910710465,192.1510122521832) translate(196.57193309271545 29.037237551907477)"/></g><g><use xlink:href="#R" transform="matrix(1,0,0,1,1401.3928910710465,249.72200666097547) translate(0 29.037237551907477)"/><use xlink:href="#S" transform="matrix(1,0,0,1,1401.3928910710465,249.72200666097547) translate(111.97524827190675 29.037237551907477)"/><use xlink:href="#T" transform="matrix(1,0,0,1,1401.3928910710465,249.72200666097547) translate(210.030496586935 29.037237551907477)"/></g><path d="M1780 56a16 16 0 0 1 16-16h328a16 16 0 0 1 16 16v277.42a16 16 0 0 1-16 16h-328a16 16 0 0 1-16-16z" stroke="#dfe3e8" stroke-width="2" fill="#fff"/><path d="M1827.26 125.5c0-.78.63-1.4 1.4-1.4h25c.78 0 1.4.62 1.4 1.4v18.06c0 .77-.62 1.4-1.4 1.4h-25c-.78 0-1.4-.63-1.4-1.4z" stroke="#3a414a" stroke-width="1.05" fill="#e8e2c8"/><path d="M1827.26 183.5c0-.77.63-1.4 1.4-1.4h25c.78 0 1.4.63 1.4 1.4v18.07c0 .77-.62 1.4-1.4 1.4h-25c-.78 0-1.4-.63-1.4-1.4z" stroke="#3a414a" stroke-width="1.05" fill="#fbf0ff"/><path d="M1827.26 241.5c0-.76.63-1.38 1.4-1.38h25c.78 0 1.4.62 1.4 1.4v18.06c0 .77-.62 1.4-1.4 1.4h-25c-.78 0-1.4-.63-1.4-1.4z" stroke="#3a414a" stroke-width="1.05" fill="#ced4db"/><g><use xlink:href="#U" transform="matrix(1,0,0,1,1874.525450319727,117.84448849859878) translate(0 29.121653636579012)"/><use xlink:href="#V" transform="matrix(1,0,0,1,1874.525450319727,117.84448849859878) translate(27.920879728342417 29.121653636579012)"/></g><g><use xlink:href="#W" transform="matrix(1,0,0,1,1874.525450319727,175.8524245543751) translate(0 29.121653636579012)"/><use xlink:href="#X" transform="matrix(1,0,0,1,1874.525450319727,175.8524245543751) translate(31.23140909210561 29.121653636579012)"/></g><g><use xlink:href="#Y" transform="matrix(1,0,0,1,1874.525450319727,233.86036061015142) translate(0 29.121653636579012)"/><use xlink:href="#Z" transform="matrix(1,0,0,1,1874.525450319727,233.86036061015142) translate(31.23140909210561 29.121653636579012)"/></g><path d="M330 965.53a8 8 0 0 1 8-8h224a8 8 0 0 1 8 8v48.94a8 8 0 0 1-8 8H338a8 8 0 0 1-8-8z" stroke="#000" stroke-opacity="0" stroke-width="4" fill="#fff" fill-opacity="0"/><g><use xlink:href="#aa" transform="matrix(1,0,0,1,335,962.5333333333333) translate(95.92592592592594 36.65555555555555)"/></g><path d="M968.07 962.02a8 8 0 0 1 8-8h224a8 8 0 0 1 8 8v48.94a8 8 0 0 1-8 8h-224a8 8 0 0 1-8-8z" stroke="#000" stroke-opacity="0" stroke-width="4" fill="#fff" fill-opacity="0"/><g><use xlink:href="#ab" transform="matrix(1,0,0,1,973.0668590183204,959.024891825788) translate(95.92592592592594 36.65555555555555)"/></g><g transform="matrix(1,0,0,1,973.0668590183204,959.024891825788)"><a xlink:href="http://2." target="_blank"><path class="lucid-link lucid-hotspot lucid-overlay-hotspot" fill-opacity="0" d="M95.93.03h38.15v54.93H95.93z"/></a></g><path d="M1727.85 965.53a8 8 0 0 1 8-8h224a8 8 0 0 1 8 8v48.94a8 8 0 0 1-8 8h-224a8 8 0 0 1-8-8z" stroke="#000" stroke-opacity="0" stroke-width="4" fill="#fff" fill-opacity="0"/><g><use xlink:href="#ac" transform="matrix(1,0,0,1,1732.8535972146556,962.5333333333333) translate(95.92592592592594 36.65555555555555)"/></g><defs><path fill="#3a414a" d="M240 0l2-218c-23 76-54 145-80 218h-23L58-218 59 0H30v-248h44l77 211c21-75 51-140 76-211h43V0h-30" id="ad"/><path fill="#3a414a" d="M84 4C-5 8 30-112 23-190h32v120c0 31 7 50 39 49 72-2 45-101 50-169h31l1 190h-30c-1-10 1-25-2-33-11 22-28 36-60 37" id="ae"/><path fill="#3a414a" d="M24 0v-261h32V0H24" id="af"/><path fill="#3a414a" d="M59-47c-2 24 18 29 38 22v24C64 9 27 4 27-40v-127H5v-23h24l9-43h21v43h35v23H59v120" id="ag"/><path fill="#3a414a" d="M24-231v-30h32v30H24zM24 0v-190h32V0H24" id="ah"/><path fill="#3a414a" d="M16-82v-28h88v28H16" id="ai"/><path fill="#3a414a" d="M185-189c-5-48-123-54-124 2 14 75 158 14 163 119 3 78-121 87-175 55-17-10-28-26-33-46l33-7c5 56 141 63 141-1 0-78-155-14-162-118-5-82 145-84 179-34 5 7 8 16 11 25" id="aj"/><path fill="#3a414a" d="M141-36C126-15 110 5 73 4 37 3 15-17 15-53c-1-64 63-63 125-63 3-35-9-54-41-54-24 1-41 7-42 31l-33-3c5-37 33-52 76-52 45 0 72 20 72 64v82c-1 20 7 32 28 27v20c-31 9-61-2-59-35zM48-53c0 20 12 33 32 33 41-3 63-29 60-74-43 2-92-5-92 41" id="ak"/><path fill="#3a414a" d="M210-169c-67 3-38 105-44 169h-31v-121c0-29-5-50-35-48C34-165 62-65 56 0H25l-1-190h30c1 10-1 24 2 32 10-44 99-50 107 0 11-21 27-35 58-36 85-2 47 119 55 194h-31v-121c0-29-5-49-35-48" id="al"/><path fill="#3a414a" d="M115-194c55 1 70 41 70 98S169 2 115 4C84 4 66-9 55-30l1 105H24l-1-265h31l2 30c10-21 28-34 59-34zm-8 174c40 0 45-34 45-75s-6-73-45-74c-42 0-51 32-51 76 0 43 10 73 51 73" id="am"/><path fill="#3a414a" d="M100-194c63 0 86 42 84 106H49c0 40 14 67 53 68 26 1 43-12 49-29l28 8c-11 28-37 45-77 45C44 4 14-33 15-96c1-61 26-98 85-98zm52 81c6-60-76-77-97-28-3 7-6 17-6 28h103" id="an"/><g id="a"><use transform="matrix(0.07314814814814813,0,0,0.07314814814814813,0,0)" xlink:href="#ad"/><use transform="matrix(0.07314814814814813,0,0,0.07314814814814813,21.87129629629629,0)" xlink:href="#ae"/><use transform="matrix(0.07314814814814813,0,0,0.07314814814814813,36.50092592592591,0)" xlink:href="#af"/><use transform="matrix(0.07314814814814813,0,0,0.07314814814814813,42.27962962962962,0)" xlink:href="#ag"/><use transform="matrix(0.07314814814814813,0,0,0.07314814814814813,49.594444444444434,0)" xlink:href="#ah"/><use transform="matrix(0.07314814814814813,0,0,0.07314814814814813,55.37314814814814,0)" xlink:href="#ai"/><use transform="matrix(0.07314814814814813,0,0,0.07314814814814813,64.07777777777777,0)" xlink:href="#aj"/><use transform="matrix(0.07314814814814813,0,0,0.07314814814814813,81.63333333333333,0)" xlink:href="#ak"/><use transform="matrix(0.07314814814814813,0,0,0.07314814814814813,96.26296296296293,0)" xlink:href="#al"/><use transform="matrix(0.07314814814814813,0,0,0.07314814814814813,118.13425925925924,0)" xlink:href="#am"/><use transform="matrix(0.07314814814814813,0,0,0.07314814814814813,132.76388888888886,0)" xlink:href="#af"/><use transform="matrix(0.07314814814814813,0,0,0.07314814814814813,138.54259259259257,0)" xlink:href="#an"/></g><path fill="#3a414a" d="M85-194c31 0 48 13 60 33l-1-100h32l1 261h-30c-2-10 0-23-3-31C134-8 116 4 85 4 32 4 16-35 15-94c0-66 23-100 70-100zm9 24c-40 0-46 34-46 75 0 40 6 74 45 74 42 0 51-32 51-76 0-42-9-74-50-73" id="ao"/><g id="b"><use transform="matrix(0.07314814814814813,0,0,0.07314814814814813,0,0)" xlink:href="#ad"/><use transform="matrix(0.07314814814814813,0,0,0.07314814814814813,21.87129629629629,0)" xlink:href="#an"/><use transform="matrix(0.07314814814814813,0,0,0.07314814814814813,36.50092592592591,0)" xlink:href="#ag"/><use transform="matrix(0.07314814814814813,0,0,0.07314814814814813,43.81574074074072,0)" xlink:href="#ak"/><use transform="matrix(0.07314814814814813,0,0,0.07314814814814813,58.44537037037035,0)" xlink:href="#ao"/><use transform="matrix(0.07314814814814813,0,0,0.07314814814814813,73.07499999999997,0)" xlink:href="#ak"/><use transform="matrix(0.07314814814814813,0,0,0.07314814814814813,87.70462962962961,0)" xlink:href="#ag"/><use transform="matrix(0.07314814814814813,0,0,0.07314814814814813,95.01944444444442,0)" xlink:href="#ak"/></g><path fill="#3a414a" d="M63-220v92h138v28H63V0H30v-248h175v28H63" id="ap"/><g id="c"><use transform="matrix(0.07314814814814813,0,0,0.07314814814814813,0,0)" xlink:href="#ap"/><use transform="matrix(0.07314814814814813,0,0,0.07314814814814813,16.01944444444444,0)" xlink:href="#ah"/><use transform="matrix(0.07314814814814813,0,0,0.07314814814814813,21.798148148148137,0)" xlink:href="#af"/><use transform="matrix(0.07314814814814813,0,0,0.07314814814814813,27.576851851851842,0)" xlink:href="#an"/></g><path fill="#3a414a" d="M87 75C49 33 22-17 22-94c0-76 28-126 65-167h31c-38 41-64 92-64 168S80 34 118 75H87" id="aq"/><path fill="#3a414a" d="M33 0v-38h34V0H33" id="ar"/><path fill="#3a414a" d="M195 0l-74-108L45 0H8l94-129-87-119h37l69 98 67-98h37l-84 118L233 0h-38" id="as"/><path fill="#3a414a" d="M30 0v-248h33v221h125V0H30" id="at"/><path fill="#3a414a" d="M33-261c38 41 65 92 65 168S71 34 33 75H2C39 34 66-17 66-93S39-220 2-261h31" id="au"/><g id="d"><use transform="matrix(0.07314814814814813,0,0,0.07314814814814813,0,0)" xlink:href="#aq"/><use transform="matrix(0.07314814814814813,0,0,0.07314814814814813,8.704629629629627,0)" xlink:href="#ar"/><use transform="matrix(0.07314814814814813,0,0,0.07314814814814813,16.01944444444444,0)" xlink:href="#as"/><use transform="matrix(0.07314814814814813,0,0,0.07314814814814813,33.57499999999999,0)" xlink:href="#at"/><use transform="matrix(0.07314814814814813,0,0,0.07314814814814813,48.204629629629615,0)" xlink:href="#aj"/><use transform="matrix(0.07314814814814813,0,0,0.07314814814814813,65.76018518518516,0)" xlink:href="#as"/><use transform="matrix(0.07314814814814813,0,0,0.07314814814814813,83.31574074074072,0)" xlink:href="#au"/></g><path fill="#3a414a" d="M233-177c-1 41-23 64-60 70L243 0h-38l-65-103H63V0H30v-248c88 3 205-21 203 71zM63-129c60-2 137 13 137-47 0-61-80-42-137-45v92" id="av"/><path fill="#3a414a" d="M101-234c-31-9-42 10-38 44h38v23H63V0H32v-167H5v-23h27c-7-52 17-82 69-68v24" id="aw"/><path fill="#3a414a" d="M114-163C36-179 61-72 57 0H25l-1-190h30c1 12-1 29 2 39 6-27 23-49 58-41v29" id="ax"/><path fill="#3a414a" d="M117-194c89-4 53 116 60 194h-32v-121c0-31-8-49-39-48C34-167 62-67 57 0H25l-1-190h30c1 10-1 24 2 32 11-22 29-35 61-36" id="ay"/><path fill="#3a414a" d="M96-169c-40 0-48 33-48 73s9 75 48 75c24 0 41-14 43-38l32 2c-6 37-31 61-74 61-59 0-76-41-82-99-10-93 101-131 147-64 4 7 5 14 7 22l-32 3c-4-21-16-35-41-35" id="az"/><g id="e"><use transform="matrix(0.07314814814814813,0,0,0.07314814814814813,0,0)" xlink:href="#av"/><use transform="matrix(0.07314814814814813,0,0,0.07314814814814813,18.945370370370366,0)" xlink:href="#an"/><use transform="matrix(0.07314814814814813,0,0,0.07314814814814813,33.57499999999999,0)" xlink:href="#aw"/><use transform="matrix(0.07314814814814813,0,0,0.07314814814814813,40.8898148148148,0)" xlink:href="#an"/><use transform="matrix(0.07314814814814813,0,0,0.07314814814814813,55.519444444444424,0)" xlink:href="#ax"/><use transform="matrix(0.07314814814814813,0,0,0.07314814814814813,64.22407407407405,0)" xlink:href="#an"/><use transform="matrix(0.07314814814814813,0,0,0.07314814814814813,78.85370370370367,0)" xlink:href="#ay"/><use transform="matrix(0.07314814814814813,0,0,0.07314814814814813,93.48333333333329,0)" xlink:href="#az"/><use transform="matrix(0.07314814814814813,0,0,0.07314814814814813,106.64999999999995,0)" xlink:href="#an"/></g><path fill="#3a414a" d="M143 4C61 4 22-44 18-125c-5-107 100-154 193-111 17 8 29 25 37 43l-32 9c-13-25-37-40-76-40-61 0-88 39-88 99 0 61 29 100 91 101 35 0 62-11 79-27v-45h-74v-28h105v86C228-13 192 4 143 4" id="aA"/><g id="f"><use transform="matrix(0.07314814814814813,0,0,0.07314814814814813,0,0)" xlink:href="#aA"/><use transform="matrix(0.07314814814814813,0,0,0.07314814814814813,20.481481481481477,0)" xlink:href="#ap"/><use transform="matrix(0.07314814814814813,0,0,0.07314814814814813,36.50092592592591,0)" xlink:href="#ap"/></g><g id="g"><use transform="matrix(0.07314814814814813,0,0,0.07314814814814813,0,0)" xlink:href="#ap"/><use transform="matrix(0.07314814814814813,0,0,0.07314814814814813,16.01944444444444,0)" xlink:href="#ah"/><use transform="matrix(0.07314814814814813,0,0,0.07314814814814813,21.798148148148137,0)" xlink:href="#af"/><use transform="matrix(0.07314814814814813,0,0,0.07314814814814813,27.576851851851842,0)" xlink:href="#an"/></g><path fill="#3a414a" d="M140-251c81 0 123 46 123 126C263-46 219 4 140 4 59 4 17-45 17-125s42-126 123-126zm0 227c63 0 89-41 89-101s-29-99-89-99c-61 0-89 39-89 99S79-25 140-24" id="aB"/><path fill="#3a414a" d="M100-194c62-1 85 37 85 99 1 63-27 99-86 99S16-35 15-95c0-66 28-99 85-99zM99-20c44 1 53-31 53-75 0-43-8-75-51-75s-53 32-53 75 10 74 51 75" id="aC"/><g id="h"><use transform="matrix(0.07314814814814813,0,0,0.07314814814814813,0,0)" xlink:href="#aq"/><use transform="matrix(0.07314814814814813,0,0,0.07314814814814813,8.704629629629627,0)" xlink:href="#aB"/><use transform="matrix(0.07314814814814813,0,0,0.07314814814814813,29.186111111111103,0)" xlink:href="#am"/><use transform="matrix(0.07314814814814813,0,0,0.07314814814814813,43.81574074074073,0)" xlink:href="#ag"/><use transform="matrix(0.07314814814814813,0,0,0.07314814814814813,51.13055555555554,0)" xlink:href="#ah"/><use transform="matrix(0.07314814814814813,0,0,0.07314814814814813,56.90925925925925,0)" xlink:href="#aC"/><use transform="matrix(0.07314814814814813,0,0,0.07314814814814813,71.53888888888888,0)" xlink:href="#ay"/><use transform="matrix(0.07314814814814813,0,0,0.07314814814814813,86.16851851851851,0)" xlink:href="#ak"/><use transform="matrix(0.07314814814814813,0,0,0.07314814814814813,100.79814814814812,0)" xlink:href="#af"/><use transform="matrix(0.07314814814814813,0,0,0.07314814814814813,106.57685185185183,0)" xlink:href="#au"/></g><g id="i"><use transform="matrix(0.11172839506172834,0,0,0.11172839506172834,0,0)" xlink:href="#ad"/><use transform="matrix(0.11172839506172834,0,0,0.11172839506172834,33.40679012345677,0)" xlink:href="#an"/><use transform="matrix(0.11172839506172834,0,0,0.11172839506172834,55.75246913580244,0)" xlink:href="#ag"/><use transform="matrix(0.11172839506172834,0,0,0.11172839506172834,66.92530864197528,0)" xlink:href="#ak"/><use transform="matrix(0.11172839506172834,0,0,0.11172839506172834,89.27098765432095,0)" xlink:href="#ao"/><use transform="matrix(0.11172839506172834,0,0,0.11172839506172834,111.61666666666662,0)" xlink:href="#ak"/><use transform="matrix(0.11172839506172834,0,0,0.11172839506172834,133.9623456790123,0)" xlink:href="#ag"/><use transform="matrix(0.11172839506172834,0,0,0.11172839506172834,145.13518518518512,0)" xlink:href="#ak"/></g><path fill="#3a414a" d="M137 0h-34L2-248h35l83 218 83-218h36" id="aD"/><g id="j"><use transform="matrix(0.11172839506172834,0,0,0.11172839506172834,0,0)" xlink:href="#aD"/><use transform="matrix(0.11172839506172834,0,0,0.11172839506172834,23.798148148148137,0)" xlink:href="#ak"/><use transform="matrix(0.11172839506172834,0,0,0.11172839506172834,46.1438271604938,0)" xlink:href="#af"/><use transform="matrix(0.11172839506172834,0,0,0.11172839506172834,54.97037037037034,0)" xlink:href="#ah"/><use transform="matrix(0.11172839506172834,0,0,0.11172839506172834,63.79691358024688,0)" xlink:href="#ao"/><use transform="matrix(0.11172839506172834,0,0,0.11172839506172834,86.14259259259255,0)" xlink:href="#ak"/><use transform="matrix(0.11172839506172834,0,0,0.11172839506172834,108.48827160493822,0)" xlink:href="#ag"/><use transform="matrix(0.11172839506172834,0,0,0.11172839506172834,119.66111111111105,0)" xlink:href="#ah"/><use transform="matrix(0.11172839506172834,0,0,0.11172839506172834,128.4876543209876,0)" xlink:href="#aC"/><use transform="matrix(0.11172839506172834,0,0,0.11172839506172834,150.83333333333326,0)" xlink:href="#ay"/></g><path fill="#3a414a" d="M30 0v-248h187v28H63v79h144v27H63v87h162V0H30" id="aE"/><g id="k"><use transform="matrix(0.07314814814814813,0,0,0.07314814814814813,0,0)" xlink:href="#aE"/><use transform="matrix(0.07314814814814813,0,0,0.07314814814814813,17.55555555555555,0)" xlink:href="#ax"/><use transform="matrix(0.07314814814814813,0,0,0.07314814814814813,26.26018518518518,0)" xlink:href="#ax"/><use transform="matrix(0.07314814814814813,0,0,0.07314814814814813,34.96481481481481,0)" xlink:href="#aC"/><use transform="matrix(0.07314814814814813,0,0,0.07314814814814813,49.594444444444434,0)" xlink:href="#ax"/></g><path fill="#3a414a" d="M177-190C167-65 218 103 67 71c-23-6-38-20-44-43l32-5c15 47 100 32 89-28v-30C133-14 115 1 83 1 29 1 15-40 15-95c0-56 16-97 71-98 29-1 48 16 59 35 1-10 0-23 2-32h30zM94-22c36 0 50-32 50-73 0-42-14-75-50-75-39 0-46 34-46 75s6 73 46 73" id="aF"/><path fill="#3a414a" d="M135-143c-3-34-86-38-87 0 15 53 115 12 119 90S17 21 10-45l28-5c4 36 97 45 98 0-10-56-113-15-118-90-4-57 82-63 122-42 12 7 21 19 24 35" id="aG"/><g id="l"><use transform="matrix(0.07314814814814813,0,0,0.07314814814814813,0,0)" xlink:href="#at"/><use transform="matrix(0.07314814814814813,0,0,0.07314814814814813,14.629629629629626,0)" xlink:href="#aC"/><use transform="matrix(0.07314814814814813,0,0,0.07314814814814813,29.259259259259252,0)" xlink:href="#aF"/><use transform="matrix(0.07314814814814813,0,0,0.07314814814814813,43.88888888888888,0)" xlink:href="#aG"/></g><g id="m"><use transform="matrix(0.07314814814814813,0,0,0.07314814814814813,0,0)" xlink:href="#aD"/><use transform="matrix(0.07314814814814813,0,0,0.07314814814814813,15.580555555555549,0)" xlink:href="#ak"/><use transform="matrix(0.07314814814814813,0,0,0.07314814814814813,30.210185185185175,0)" xlink:href="#af"/><use transform="matrix(0.07314814814814813,0,0,0.07314814814814813,35.98888888888888,0)" xlink:href="#ah"/><use transform="matrix(0.07314814814814813,0,0,0.07314814814814813,41.76759259259258,0)" xlink:href="#ao"/><use transform="matrix(0.07314814814814813,0,0,0.07314814814814813,56.39722222222222,0)" xlink:href="#ak"/><use transform="matrix(0.07314814814814813,0,0,0.07314814814814813,71.02685185185183,0)" xlink:href="#ag"/><use transform="matrix(0.07314814814814813,0,0,0.07314814814814813,78.34166666666664,0)" xlink:href="#an"/><use transform="matrix(0.07314814814814813,0,0,0.07314814814814813,92.97129629629626,0)" xlink:href="#ao"/></g><path fill="#3a414a" d="M127-220V0H93v-220H8v-28h204v28h-85" id="aH"/><g id="n"><use transform="matrix(0.07314814814814813,0,0,0.07314814814814813,0,0)" xlink:href="#ar"/><use transform="matrix(0.07314814814814813,0,0,0.07314814814814813,7.314814814814813,0)" xlink:href="#aH"/><use transform="matrix(0.07314814814814813,0,0,0.07314814814814813,23.33425925925925,0)" xlink:href="#aj"/><use transform="matrix(0.07314814814814813,0,0,0.07314814814814813,40.8898148148148,0)" xlink:href="#aD"/></g><path fill="#3a414a" d="M30-248c87 1 191-15 191 75 0 78-77 80-158 76V0H30v-248zm33 125c57 0 124 11 124-50 0-59-68-47-124-48v98" id="aI"/><g id="o"><use transform="matrix(0.07314814814814813,0,0,0.07314814814814813,0,0)" xlink:href="#aI"/><use transform="matrix(0.07314814814814813,0,0,0.07314814814814813,17.55555555555555,0)" xlink:href="#an"/><use transform="matrix(0.07314814814814813,0,0,0.07314814814814813,32.185185185185176,0)" xlink:href="#ax"/></g><g id="p"><use transform="matrix(0.07314814814814813,0,0,0.07314814814814813,0,0)" xlink:href="#aj"/><use transform="matrix(0.07314814814814813,0,0,0.07314814814814813,17.55555555555555,0)" xlink:href="#ak"/><use transform="matrix(0.07314814814814813,0,0,0.07314814814814813,32.185185185185176,0)" xlink:href="#al"/><use transform="matrix(0.07314814814814813,0,0,0.07314814814814813,54.05648148148147,0)" xlink:href="#am"/><use transform="matrix(0.07314814814814813,0,0,0.07314814814814813,68.6861111111111,0)" xlink:href="#af"/><use transform="matrix(0.07314814814814813,0,0,0.07314814814814813,74.4648148148148,0)" xlink:href="#an"/></g><g id="q"><use transform="matrix(0.11172839506172834,0,0,0.11172839506172834,0,0)" xlink:href="#aA"/><use transform="matrix(0.11172839506172834,0,0,0.11172839506172834,31.283950617283935,0)" xlink:href="#an"/><use transform="matrix(0.11172839506172834,0,0,0.11172839506172834,53.629629629629605,0)" xlink:href="#ay"/><use transform="matrix(0.11172839506172834,0,0,0.11172839506172834,75.97530864197527,0)" xlink:href="#aC"/><use transform="matrix(0.11172839506172834,0,0,0.11172839506172834,98.32098765432094,0)" xlink:href="#al"/><use transform="matrix(0.11172839506172834,0,0,0.11172839506172834,131.7277777777777,0)" xlink:href="#an"/></g><path fill="#3a414a" d="M205 0l-28-72H64L36 0H1l101-248h38L239 0h-34zm-38-99l-47-123c-12 45-31 82-46 123h93" id="aJ"/><g id="r"><use transform="matrix(0.11172839506172834,0,0,0.11172839506172834,0,0)" xlink:href="#aJ"/><use transform="matrix(0.11172839506172834,0,0,0.11172839506172834,26.814814814814802,0)" xlink:href="#ay"/><use transform="matrix(0.11172839506172834,0,0,0.11172839506172834,49.160493827160465,0)" xlink:href="#ay"/><use transform="matrix(0.11172839506172834,0,0,0.11172839506172834,71.50617283950614,0)" xlink:href="#aC"/><use transform="matrix(0.11172839506172834,0,0,0.11172839506172834,93.8518518518518,0)" xlink:href="#ag"/><use transform="matrix(0.11172839506172834,0,0,0.11172839506172834,105.02469135802464,0)" xlink:href="#ak"/><use transform="matrix(0.11172839506172834,0,0,0.11172839506172834,127.37037037037031,0)" xlink:href="#ag"/><use transform="matrix(0.11172839506172834,0,0,0.11172839506172834,138.54320987654313,0)" xlink:href="#ah"/><use transform="matrix(0.11172839506172834,0,0,0.11172839506172834,147.36975308641968,0)" xlink:href="#aC"/><use transform="matrix(0.11172839506172834,0,0,0.11172839506172834,169.71543209876535,0)" xlink:href="#ay"/></g><g id="s"><use transform="matrix(0.11172839506172834,0,0,0.11172839506172834,0,0)" xlink:href="#aj"/><use transform="matrix(0.11172839506172834,0,0,0.11172839506172834,26.814814814814802,0)" xlink:href="#ak"/><use transform="matrix(0.11172839506172834,0,0,0.11172839506172834,49.160493827160465,0)" xlink:href="#al"/><use transform="matrix(0.11172839506172834,0,0,0.11172839506172834,82.56728395061724,0)" xlink:href="#am"/><use transform="matrix(0.11172839506172834,0,0,0.11172839506172834,104.91296296296291,0)" xlink:href="#af"/><use transform="matrix(0.11172839506172834,0,0,0.11172839506172834,113.73950617283944,0)" xlink:href="#an"/></g><path fill="#3a414a" d="M115-194c53 0 69 39 70 98 0 66-23 100-70 100C84 3 66-7 56-30L54 0H23l1-261h32v101c10-23 28-34 59-34zm-8 174c40 0 45-34 45-75 0-40-5-75-45-74-42 0-51 32-51 76 0 43 10 73 51 73" id="aK"/><g id="t"><use transform="matrix(0.11172839506172834,0,0,0.11172839506172834,0,0)" xlink:href="#aj"/><use transform="matrix(0.11172839506172834,0,0,0.11172839506172834,26.814814814814802,0)" xlink:href="#ae"/><use transform="matrix(0.11172839506172834,0,0,0.11172839506172834,49.160493827160465,0)" xlink:href="#aK"/><use transform="matrix(0.11172839506172834,0,0,0.11172839506172834,71.50617283950614,0)" xlink:href="#al"/><use transform="matrix(0.11172839506172834,0,0,0.11172839506172834,104.91296296296291,0)" xlink:href="#ah"/><use transform="matrix(0.11172839506172834,0,0,0.11172839506172834,113.73950617283944,0)" xlink:href="#aG"/><use transform="matrix(0.11172839506172834,0,0,0.11172839506172834,133.85061728395056,0)" xlink:href="#aG"/><use transform="matrix(0.11172839506172834,0,0,0.11172839506172834,153.96172839506164,0)" xlink:href="#ah"/><use transform="matrix(0.11172839506172834,0,0,0.11172839506172834,162.7882716049382,0)" xlink:href="#aC"/><use transform="matrix(0.11172839506172834,0,0,0.11172839506172834,185.13395061728386,0)" xlink:href="#ay"/></g><g id="u"><use transform="matrix(0.07314814814814813,0,0,0.07314814814814813,0,0)" xlink:href="#ap"/><use transform="matrix(0.07314814814814813,0,0,0.07314814814814813,14.556481481481478,0)" xlink:href="#aJ"/><use transform="matrix(0.07314814814814813,0,0,0.07314814814814813,32.11203703703703,0)" xlink:href="#aj"/><use transform="matrix(0.07314814814814813,0,0,0.07314814814814813,49.66759259259258,0)" xlink:href="#aH"/><use transform="matrix(0.07314814814814813,0,0,0.07314814814814813,63.712037037037014,0)" xlink:href="#aJ"/></g><g id="v"><use transform="matrix(0.07314814814814813,0,0,0.07314814814814813,0,0)" xlink:href="#ap"/><use transform="matrix(0.07314814814814813,0,0,0.07314814814814813,16.01944444444444,0)" xlink:href="#an"/><use transform="matrix(0.07314814814814813,0,0,0.07314814814814813,30.649074074074065,0)" xlink:href="#ak"/><use transform="matrix(0.07314814814814813,0,0,0.07314814814814813,45.27870370370369,0)" xlink:href="#ag"/><use transform="matrix(0.07314814814814813,0,0,0.07314814814814813,52.59351851851851,0)" xlink:href="#ae"/><use transform="matrix(0.07314814814814813,0,0,0.07314814814814813,67.22314814814814,0)" xlink:href="#ax"/><use transform="matrix(0.07314814814814813,0,0,0.07314814814814813,75.92777777777776,0)" xlink:href="#an"/></g><path fill="#3a414a" d="M160-131c35 5 61 23 61 61C221 17 115-2 30 0v-248c76 3 177-17 177 60 0 33-19 50-47 57zm-97-11c50-1 110 9 110-42 0-47-63-36-110-37v79zm0 115c55-2 124 14 124-45 0-56-70-42-124-44v89" id="aL"/><g id="w"><use transform="matrix(0.07314814814814813,0,0,0.07314814814814813,0,0)" xlink:href="#aH"/><use transform="matrix(0.07314814814814813,0,0,0.07314814814814813,16.01944444444444,0)" xlink:href="#aL"/><use transform="matrix(0.07314814814814813,0,0,0.07314814814814813,33.57499999999999,0)" xlink:href="#at"/></g><g id="x"><use transform="matrix(0.07314814814814813,0,0,0.07314814814814813,0,0)" xlink:href="#ap"/><use transform="matrix(0.07314814814814813,0,0,0.07314814814814813,16.01944444444444,0)" xlink:href="#aC"/><use transform="matrix(0.07314814814814813,0,0,0.07314814814814813,30.649074074074065,0)" xlink:href="#ax"/><use transform="matrix(0.07314814814814813,0,0,0.07314814814814813,39.353703703703694,0)" xlink:href="#al"/><use transform="matrix(0.07314814814814813,0,0,0.07314814814814813,61.22499999999999,0)" xlink:href="#ak"/><use transform="matrix(0.07314814814814813,0,0,0.07314814814814813,75.85462962962961,0)" xlink:href="#ag"/><use transform="matrix(0.07314814814814813,0,0,0.07314814814814813,83.16944444444442,0)" xlink:href="#ag"/><use transform="matrix(0.07314814814814813,0,0,0.07314814814814813,90.48425925925923,0)" xlink:href="#an"/><use transform="matrix(0.07314814814814813,0,0,0.07314814814814813,105.11388888888884,0)" xlink:href="#ao"/></g><g id="y"><use transform="matrix(0.07314814814814813,0,0,0.07314814814814813,0,0)" xlink:href="#ap"/><use transform="matrix(0.07314814814814813,0,0,0.07314814814814813,14.556481481481478,0)" xlink:href="#aJ"/><use transform="matrix(0.07314814814814813,0,0,0.07314814814814813,32.11203703703703,0)" xlink:href="#aj"/><use transform="matrix(0.07314814814814813,0,0,0.07314814814814813,49.66759259259258,0)" xlink:href="#aH"/><use transform="matrix(0.07314814814814813,0,0,0.07314814814814813,63.712037037037014,0)" xlink:href="#aJ"/></g><path fill="#3a414a" d="M118-107v75H92v-75H18v-26h74v-75h26v75h74v26h-74" id="aM"/><use transform="matrix(0.07314814814814813,0,0,0.07314814814814813,0,0)" xlink:href="#aM" id="z"/><use transform="matrix(0.07314814814814813,0,0,0.07314814814814813,0,0)" xlink:href="#aM" id="A"/><g id="B"><use transform="matrix(0.07314814814814813,0,0,0.07314814814814813,0,0)" xlink:href="#aH"/><use transform="matrix(0.07314814814814813,0,0,0.07314814814814813,16.01944444444444,0)" xlink:href="#aj"/><use transform="matrix(0.07314814814814813,0,0,0.07314814814814813,33.57499999999999,0)" xlink:href="#aD"/></g><g id="C"><use transform="matrix(0.07314814814814813,0,0,0.07314814814814813,0,0)" xlink:href="#aj"/><use transform="matrix(0.07314814814814813,0,0,0.07314814814814813,17.55555555555555,0)" xlink:href="#ae"/><use transform="matrix(0.07314814814814813,0,0,0.07314814814814813,32.185185185185176,0)" xlink:href="#aK"/><use transform="matrix(0.07314814814814813,0,0,0.07314814814814813,46.8148148148148,0)" xlink:href="#al"/><use transform="matrix(0.07314814814814813,0,0,0.07314814814814813,68.68611111111109,0)" xlink:href="#ah"/><use transform="matrix(0.07314814814814813,0,0,0.07314814814814813,74.46481481481479,0)" xlink:href="#aG"/><use transform="matrix(0.07314814814814813,0,0,0.07314814814814813,87.63148148148144,0)" xlink:href="#aG"/><use transform="matrix(0.07314814814814813,0,0,0.07314814814814813,100.7981481481481,0)" xlink:href="#ah"/><use transform="matrix(0.07314814814814813,0,0,0.07314814814814813,106.57685185185181,0)" xlink:href="#aC"/><use transform="matrix(0.07314814814814813,0,0,0.07314814814814813,121.20648148148143,0)" xlink:href="#ay"/></g><g id="D"><use transform="matrix(0.0731481481481481,0,0,0.0731481481481481,0,0)" xlink:href="#ad"/><use transform="matrix(0.0731481481481481,0,0,0.0731481481481481,21.871296296296283,0)" xlink:href="#ae"/><use transform="matrix(0.0731481481481481,0,0,0.0731481481481481,36.500925925925905,0)" xlink:href="#af"/><use transform="matrix(0.0731481481481481,0,0,0.0731481481481481,42.2796296296296,0)" xlink:href="#ag"/><use transform="matrix(0.0731481481481481,0,0,0.0731481481481481,49.59444444444441,0)" xlink:href="#ah"/><use transform="matrix(0.0731481481481481,0,0,0.0731481481481481,55.37314814814811,0)" xlink:href="#ai"/><use transform="matrix(0.0731481481481481,0,0,0.0731481481481481,64.07777777777774,0)" xlink:href="#aj"/><use transform="matrix(0.0731481481481481,0,0,0.0731481481481481,81.63333333333328,0)" xlink:href="#ak"/><use transform="matrix(0.0731481481481481,0,0,0.0731481481481481,96.2629629629629,0)" xlink:href="#al"/><use transform="matrix(0.0731481481481481,0,0,0.0731481481481481,118.13425925925918,0)" xlink:href="#am"/><use transform="matrix(0.0731481481481481,0,0,0.0731481481481481,132.7638888888888,0)" xlink:href="#af"/><use transform="matrix(0.0731481481481481,0,0,0.0731481481481481,138.5425925925925,0)" xlink:href="#an"/></g><g id="E"><use transform="matrix(0.0731481481481481,0,0,0.0731481481481481,0,0)" xlink:href="#ap"/><use transform="matrix(0.0731481481481481,0,0,0.0731481481481481,14.556481481481471,0)" xlink:href="#aJ"/><use transform="matrix(0.0731481481481481,0,0,0.0731481481481481,32.11203703703701,0)" xlink:href="#aj"/><use transform="matrix(0.0731481481481481,0,0,0.0731481481481481,49.667592592592555,0)" xlink:href="#aH"/><use transform="matrix(0.0731481481481481,0,0,0.0731481481481481,63.71203703703699,0)" xlink:href="#aJ"/></g><path fill="#3a414a" d="M0 4l72-265h28L28 4H0" id="aN"/><use transform="matrix(0.0731481481481481,0,0,0.0731481481481481,0,0)" xlink:href="#aN" id="F"/><path fill="#3a414a" d="M140-251c81 0 123 46 123 126C263-53 228-8 163 1c7 30 30 48 69 40v23c-55 16-95-15-103-61C56-3 17-48 17-125c0-80 42-126 123-126zm0 227c63 0 89-41 89-101s-29-99-89-99c-61 0-89 39-89 99S79-25 140-24" id="aO"/><g id="G"><use transform="matrix(0.0731481481481481,0,0,0.0731481481481481,0,0)" xlink:href="#ap"/><use transform="matrix(0.0731481481481481,0,0,0.0731481481481481,14.556481481481471,0)" xlink:href="#aJ"/><use transform="matrix(0.0731481481481481,0,0,0.0731481481481481,32.11203703703701,0)" xlink:href="#aj"/><use transform="matrix(0.0731481481481481,0,0,0.0731481481481481,49.667592592592555,0)" xlink:href="#aH"/><use transform="matrix(0.0731481481481481,0,0,0.0731481481481481,65.68703703703699,0)" xlink:href="#aO"/></g><g id="H"><use transform="matrix(0.0731481481481481,0,0,0.0731481481481481,0,0)" xlink:href="#ap"/><use transform="matrix(0.0731481481481481,0,0,0.0731481481481481,16.019444444444435,0)" xlink:href="#ah"/><use transform="matrix(0.0731481481481481,0,0,0.0731481481481481,21.798148148148137,0)" xlink:href="#af"/><use transform="matrix(0.0731481481481481,0,0,0.0731481481481481,27.576851851851835,0)" xlink:href="#an"/></g><g id="I"><use transform="matrix(0.07314814814814813,0,0,0.07314814814814813,0,0)" xlink:href="#ap"/><use transform="matrix(0.07314814814814813,0,0,0.07314814814814813,14.556481481481478,0)" xlink:href="#aJ"/><use transform="matrix(0.07314814814814813,0,0,0.07314814814814813,32.11203703703703,0)" xlink:href="#aj"/><use transform="matrix(0.07314814814814813,0,0,0.07314814814814813,49.66759259259258,0)" xlink:href="#aH"/><use transform="matrix(0.07314814814814813,0,0,0.07314814814814813,63.712037037037014,0)" xlink:href="#aJ"/></g><path d="M275 0h-61l-44-196L126 0H64L0-248h53L97-49l45-199h58l43 199 44-199h52" id="aP"/><path d="M140-251c80 0 125 45 125 126S219 4 139 4C58 4 15-44 15-125s44-126 125-126zm-1 214c52 0 73-35 73-88 0-50-21-86-72-86-52 0-73 35-73 86s22 88 72 88" id="aQ"/><path d="M240-174c0 40-23 61-54 70L253 0h-59l-57-94H76V0H24v-248c93 4 217-23 216 74zM76-134c48-2 112 12 112-38 0-48-66-32-112-35v73" id="aR"/><path d="M195 0l-88-114-31 24V0H24v-248h52v113l112-113h60L142-143 257 0h-62" id="aS"/><path d="M76-208v77h127v40H76V0H24v-248h183v40H76" id="aT"/><path d="M24 0v-248h52v208h133V0H24" id="aU"/><g id="J"><use transform="matrix(0.11548632402340632,0,0,0.11548632402340632,0,0)" xlink:href="#aP"/><use transform="matrix(0.11548632402340632,0,0,0.11548632402340632,39.149863843934746,0)" xlink:href="#aQ"/><use transform="matrix(0.11548632402340632,0,0,0.11548632402340632,71.48603457048851,0)" xlink:href="#aR"/><use transform="matrix(0.11548632402340632,0,0,0.11548632402340632,101.39699249255075,0)" xlink:href="#aS"/><use transform="matrix(0.11548632402340632,0,0,0.11548632402340632,131.307950414613,0)" xlink:href="#aT"/><use transform="matrix(0.11548632402340632,0,0,0.11548632402340632,156.59945537573898,0)" xlink:href="#aU"/><use transform="matrix(0.11548632402340632,0,0,0.11548632402340632,181.89096033686496,0)" xlink:href="#aQ"/><use transform="matrix(0.11548632402340632,0,0,0.11548632402340632,214.22713106341874,0)" xlink:href="#aP"/></g><path d="M24 0v-248h195v40H76v63h132v40H76v65h150V0H24" id="aV"/><path d="M146-102V0H94v-102L6-248h54l60 105 60-105h54" id="aW"/><g id="K"><use transform="matrix(0.11548632402340632,0,0,0.11548632402340632,0,0)" xlink:href="#aS"/><use transform="matrix(0.11548632402340632,0,0,0.11548632402340632,29.910957922062238,0)" xlink:href="#aV"/><use transform="matrix(0.11548632402340632,0,0,0.11548632402340632,57.627675687679755,0)" xlink:href="#aW"/></g><path d="M24 0v-248h52V0H24" id="aX"/><path d="M135-194c87-1 58 113 63 194h-50c-7-57 23-157-34-157-59 0-34 97-39 157H25l-1-190h47c2 12-1 28 3 38 12-26 28-41 61-42" id="aY"/><path d="M135-194c53 0 70 44 70 98 0 56-19 98-73 100-31 1-45-17-59-34 3 33 2 69 2 105H25l-1-265h48c2 10 0 23 3 31 11-24 29-35 60-35zM114-30c33 0 39-31 40-66 0-38-9-64-40-64-56 0-55 130 0 130" id="aZ"/><path d="M85 4C-2 5 27-109 22-190h50c7 57-23 150 33 157 60-5 35-97 40-157h50l1 190h-47c-2-12 1-28-3-38-12 25-28 42-61 42" id="ba"/><path d="M115-3C79 11 28 4 28-45v-112H4v-33h27l15-45h31v45h36v33H77v99c-1 23 16 31 38 25v30" id="bb"/><g id="L"><use transform="matrix(0.07690607710982608,0,0,0.07690607710982608,0,0)" xlink:href="#aX"/><use transform="matrix(0.07690607710982608,0,0,0.07690607710982608,7.690607710982608,0)" xlink:href="#aY"/><use transform="matrix(0.07690607710982608,0,0,0.07690607710982608,24.53303859803452,0)" xlink:href="#aZ"/><use transform="matrix(0.07690607710982608,0,0,0.07690607710982608,41.37546948508643,0)" xlink:href="#ba"/><use transform="matrix(0.07690607710982608,0,0,0.07690607710982608,58.21790037213834,0)" xlink:href="#bb"/></g><path d="M25-224v-37h50v37H25zM25 0v-190h50V0H25" id="bc"/><path d="M25 0v-261h50V0H25" id="bd"/><path d="M185-48c-13 30-37 53-82 52C43 2 14-33 14-96s30-98 90-98c62 0 83 45 84 108H66c0 31 8 55 39 56 18 0 30-7 34-22zm-45-69c5-46-57-63-70-21-2 6-4 13-4 21h74" id="be"/><g id="M"><use transform="matrix(0.07690607710982608,0,0,0.07690607710982608,0,0)" xlink:href="#aT"/><use transform="matrix(0.07690607710982608,0,0,0.07690607710982608,16.84243088705191,0)" xlink:href="#bc"/><use transform="matrix(0.07690607710982608,0,0,0.07690607710982608,24.53303859803452,0)" xlink:href="#bd"/><use transform="matrix(0.07690607710982608,0,0,0.07690607710982608,32.22364630901713,0)" xlink:href="#be"/></g><path d="M24-248c93 1 206-16 204 79-1 75-69 88-152 82V0H24v-248zm52 121c47 0 100 7 100-41 0-47-54-39-100-39v80" id="bf"/><g id="N"><use transform="matrix(0.07690607710982608,0,0,0.07690607710982608,0,0)" xlink:href="#bf"/><use transform="matrix(0.07690607710982608,0,0,0.07690607710982608,18.45745850635826,0)" xlink:href="#bc"/><use transform="matrix(0.07690607710982608,0,0,0.07690607710982608,26.14806621734087,0)" xlink:href="#aZ"/><use transform="matrix(0.07690607710982608,0,0,0.07690607710982608,42.99049710439278,0)" xlink:href="#be"/><use transform="matrix(0.07690607710982608,0,0,0.07690607710982608,58.371712526357996,0)" xlink:href="#bd"/><use transform="matrix(0.07690607710982608,0,0,0.07690607710982608,66.0623202373406,0)" xlink:href="#bc"/><use transform="matrix(0.07690607710982608,0,0,0.07690607710982608,73.7529279483232,0)" xlink:href="#aY"/><use transform="matrix(0.07690607710982608,0,0,0.07690607710982608,90.59535883537512,0)" xlink:href="#be"/></g><path d="M169-182c-1-43-94-46-97-3 18 66 151 10 154 114 3 95-165 93-204 36-6-8-10-19-12-30l50-8c3 46 112 56 116 5-17-69-150-10-154-114-4-87 153-88 188-35 5 8 8 18 10 28" id="bg"/><g id="O"><use transform="matrix(0.07690607710982608,0,0,0.07690607710982608,0,0)" xlink:href="#bg"/><use transform="matrix(0.07690607710982608,0,0,0.07690607710982608,18.45745850635826,0)" xlink:href="#bb"/><use transform="matrix(0.07690607710982608,0,0,0.07690607710982608,27.609281682427564,0)" xlink:href="#be"/><use transform="matrix(0.07690607710982608,0,0,0.07690607710982608,42.99049710439278,0)" xlink:href="#aZ"/></g><path d="M4 7l51-268h42L46 7H4" id="bh"/><use transform="matrix(0.07690607710982608,0,0,0.07690607710982608,0,0)" xlink:href="#bh" id="P"/><path d="M135-150c-39-12-60 13-60 57V0H25l-1-190h47c2 13-1 29 3 40 6-28 27-53 61-41v41" id="bi"/><path d="M110-194c64 0 96 36 96 99 0 64-35 99-97 99-61 0-95-36-95-99 0-62 34-99 96-99zm-1 164c35 0 45-28 45-65 0-40-10-65-43-65-34 0-45 26-45 65 0 36 10 65 43 65" id="bj"/><path d="M190-63c-7 42-38 67-86 67-59 0-84-38-90-98-12-110 154-137 174-36l-49 2c-2-19-15-32-35-32-30 0-35 28-38 64-6 74 65 87 74 30" id="bk"/><path d="M137-138c1-29-70-34-71-4 15 46 118 7 119 86 1 83-164 76-172 9l43-7c4 19 20 25 44 25 33 8 57-30 24-41C81-84 22-81 20-136c-2-80 154-74 161-7" id="bl"/><g id="Q"><use transform="matrix(0.07690607710982608,0,0,0.07690607710982608,0,0)" xlink:href="#bf"/><use transform="matrix(0.07690607710982608,0,0,0.07690607710982608,18.45745850635826,0)" xlink:href="#bi"/><use transform="matrix(0.07690607710982608,0,0,0.07690607710982608,29.22430930173391,0)" xlink:href="#bj"/><use transform="matrix(0.07690607710982608,0,0,0.07690607710982608,46.06674018878582,0)" xlink:href="#bk"/><use transform="matrix(0.07690607710982608,0,0,0.07690607710982608,61.44795561075104,0)" xlink:href="#be"/><use transform="matrix(0.07690607710982608,0,0,0.07690607710982608,76.82917103271626,0)" xlink:href="#bl"/><use transform="matrix(0.07690607710982608,0,0,0.07690607710982608,92.21038645468147,0)" xlink:href="#bl"/></g><path d="M230 0l2-204L168 0h-37L68-204 70 0H24v-248h70l56 185 57-185h69V0h-46" id="bm"/><g id="R"><use transform="matrix(0.07690607710982608,0,0,0.07690607710982608,0,0)" xlink:href="#bm"/><use transform="matrix(0.07690607710982608,0,0,0.07690607710982608,22.994917055838,0)" xlink:href="#ba"/><use transform="matrix(0.07690607710982608,0,0,0.07690607710982608,39.8373479428899,0)" xlink:href="#bd"/><use transform="matrix(0.07690607710982608,0,0,0.07690607710982608,47.52795565387251,0)" xlink:href="#bb"/><use transform="matrix(0.07690607710982608,0,0,0.07690607710982608,56.67977882994181,0)" xlink:href="#bc"/><use transform="matrix(0.07690607710982608,0,0,0.07690607710982608,64.37038654092441,0)" xlink:href="#aZ"/><use transform="matrix(0.07690607710982608,0,0,0.07690607710982608,81.21281742797632,0)" xlink:href="#bd"/><use transform="matrix(0.07690607710982608,0,0,0.07690607710982608,88.90342513895891,0)" xlink:href="#be"/></g><g id="S"><use transform="matrix(0.07690607710982608,0,0,0.07690607710982608,0,0)" xlink:href="#aQ"/><use transform="matrix(0.07690607710982608,0,0,0.07690607710982608,21.533701590751303,0)" xlink:href="#ba"/><use transform="matrix(0.07690607710982608,0,0,0.07690607710982608,38.37613247780321,0)" xlink:href="#bb"/><use transform="matrix(0.07690607710982608,0,0,0.07690607710982608,47.52795565387251,0)" xlink:href="#aZ"/><use transform="matrix(0.07690607710982608,0,0,0.07690607710982608,64.37038654092441,0)" xlink:href="#ba"/><use transform="matrix(0.07690607710982608,0,0,0.07690607710982608,81.21281742797632,0)" xlink:href="#bb"/></g><g id="T"><use transform="matrix(0.07690607710982608,0,0,0.07690607710982608,0,0)" xlink:href="#aT"/><use transform="matrix(0.07690607710982608,0,0,0.07690607710982608,16.84243088705191,0)" xlink:href="#bc"/><use transform="matrix(0.07690607710982608,0,0,0.07690607710982608,24.53303859803452,0)" xlink:href="#bd"/><use transform="matrix(0.07690607710982608,0,0,0.07690607710982608,32.22364630901713,0)" xlink:href="#be"/><use transform="matrix(0.07690607710982608,0,0,0.07690607710982608,47.60486173098234,0)" xlink:href="#bl"/></g><path d="M23 0v-37h61v-169l-59 37v-38l62-41h46v211h57V0H23" id="bn"/><path d="M24 0v-54h51V0H24" id="bo"/><g id="U"><use transform="matrix(0.07807852273026403,0,0,0.07807852273026403,0,0)" xlink:href="#bn"/><use transform="matrix(0.07807852273026403,0,0,0.07807852273026403,15.615704546052806,0)" xlink:href="#bo"/></g><path d="M147 0H94L2-248h55l64 206c17-72 42-137 63-206h54" id="bp"/><path d="M133-34C117-15 103 5 69 4 32 3 11-16 11-54c-1-60 55-63 116-61 1-26-3-47-28-47-18 1-26 9-28 27l-52-2c7-38 36-58 82-57s74 22 75 68l1 82c-1 14 12 18 25 15v27c-30 8-71 5-69-32zm-48 3c29 0 43-24 42-57-32 0-66-3-65 30 0 17 8 27 23 27" id="bq"/><path d="M88-194c31-1 46 15 58 34l-1-101h50l1 261h-48c-2-10 0-23-3-31C134-8 116 4 84 4 32 4 16-41 15-95c0-56 19-97 73-99zm17 164c33 0 40-30 41-66 1-37-9-64-41-64s-38 30-39 65c0 43 13 65 39 65" id="br"/><g id="V"><use transform="matrix(0.07807852273026403,0,0,0.07807852273026403,0,0)" xlink:href="#bp"/><use transform="matrix(0.07807852273026403,0,0,0.07807852273026403,17.177275000658085,0)" xlink:href="#bq"/><use transform="matrix(0.07807852273026403,0,0,0.07807852273026403,32.79297954671089,0)" xlink:href="#bd"/><use transform="matrix(0.07807852273026403,0,0,0.07807852273026403,40.600831819737294,0)" xlink:href="#bc"/><use transform="matrix(0.07807852273026403,0,0,0.07807852273026403,48.4086840927637,0)" xlink:href="#br"/><use transform="matrix(0.07807852273026403,0,0,0.07807852273026403,65.50788057069153,0)" xlink:href="#bq"/><use transform="matrix(0.07807852273026403,0,0,0.07807852273026403,81.12358511674434,0)" xlink:href="#bb"/><use transform="matrix(0.07807852273026403,0,0,0.07807852273026403,90.41492932164576,0)" xlink:href="#bc"/><use transform="matrix(0.07807852273026403,0,0,0.07807852273026403,98.22278159467217,0)" xlink:href="#bj"/><use transform="matrix(0.07807852273026403,0,0,0.07807852273026403,115.32197807259996,0)" xlink:href="#aY"/></g><path d="M182-182c0 78-84 86-111 141h115V0H12c-6-101 99-100 120-180 1-22-12-31-33-32-23 0-32 14-35 34l-49-3c5-45 32-70 84-70 51 0 83 22 83 69" id="bs"/><g id="W"><use transform="matrix(0.07807852273026403,0,0,0.07807852273026403,0,0)" xlink:href="#bs"/><use transform="matrix(0.07807852273026403,0,0,0.07807852273026403,15.615704546052806,0)" xlink:href="#bo"/></g><path d="M199 0l-22-63H83L61 0H9l90-248h61L250 0h-51zm-33-102l-36-108c-10 38-24 72-36 108h72" id="bt"/><g id="X"><use transform="matrix(0.07807852273026403,0,0,0.07807852273026403,0,0)" xlink:href="#bt"/><use transform="matrix(0.07807852273026403,0,0,0.07807852273026403,20.22233738713838,0)" xlink:href="#aY"/><use transform="matrix(0.07807852273026403,0,0,0.07807852273026403,37.3215338650662,0)" xlink:href="#aY"/><use transform="matrix(0.07807852273026403,0,0,0.07807852273026403,54.42073034299402,0)" xlink:href="#bj"/><use transform="matrix(0.07807852273026403,0,0,0.07807852273026403,71.51992682092184,0)" xlink:href="#bb"/><use transform="matrix(0.07807852273026403,0,0,0.07807852273026403,80.81127102582327,0)" xlink:href="#bq"/><use transform="matrix(0.07807852273026403,0,0,0.07807852273026403,96.42697557187607,0)" xlink:href="#bb"/><use transform="matrix(0.07807852273026403,0,0,0.07807852273026403,105.71831977677749,0)" xlink:href="#bc"/><use transform="matrix(0.07807852273026403,0,0,0.07807852273026403,113.52617204980389,0)" xlink:href="#bj"/><use transform="matrix(0.07807852273026403,0,0,0.07807852273026403,130.62536852773172,0)" xlink:href="#aY"/></g><path d="M128-127c34 4 56 21 59 58 7 91-148 94-172 28-4-9-6-17-7-26l51-5c1 24 16 35 40 36 23 0 39-12 38-36-1-31-31-36-65-34v-40c32 2 59-3 59-33 0-20-13-33-34-33s-33 13-35 32l-50-3c6-44 37-68 86-68 50 0 83 20 83 66 0 35-22 52-53 58" id="bu"/><g id="Y"><use transform="matrix(0.07807852273026403,0,0,0.07807852273026403,0,0)" xlink:href="#bu"/><use transform="matrix(0.07807852273026403,0,0,0.07807852273026403,15.615704546052806,0)" xlink:href="#bo"/></g><path d="M135-194c52 0 70 43 70 98 0 56-19 99-73 100-30 1-46-15-58-35L72 0H24l1-261h50v104c11-23 29-37 60-37zM114-30c31 0 40-27 40-66 0-37-7-63-39-63s-41 28-41 65c0 36 8 64 40 64" id="bv"/><path d="M220-157c-53 9-28 100-34 157h-49v-107c1-27-5-49-29-50C55-147 81-57 75 0H25l-1-190h47c2 12-1 28 3 38 10-53 101-56 108 0 13-22 24-43 59-42 82 1 51 116 57 194h-49v-107c-1-25-5-48-29-50" id="bw"/><g id="Z"><use transform="matrix(0.07807852273026403,0,0,0.07807852273026403,0,0)" xlink:href="#bg"/><use transform="matrix(0.07807852273026403,0,0,0.07807852273026403,18.738845455263366,0)" xlink:href="#ba"/><use transform="matrix(0.07807852273026403,0,0,0.07807852273026403,35.83804193319119,0)" xlink:href="#bv"/><use transform="matrix(0.07807852273026403,0,0,0.07807852273026403,52.93723841111901,0)" xlink:href="#bw"/><use transform="matrix(0.07807852273026403,0,0,0.07807852273026403,77.92236568480351,0)" xlink:href="#bc"/><use transform="matrix(0.07807852273026403,0,0,0.07807852273026403,85.73021795782991,0)" xlink:href="#bl"/><use transform="matrix(0.07807852273026403,0,0,0.07807852273026403,101.34592250388272,0)" xlink:href="#bl"/><use transform="matrix(0.07807852273026403,0,0,0.07807852273026403,116.96162704993553,0)" xlink:href="#bc"/><use transform="matrix(0.07807852273026403,0,0,0.07807852273026403,124.76947932296193,0)" xlink:href="#bj"/><use transform="matrix(0.07807852273026403,0,0,0.07807852273026403,141.86867580088975,0)" xlink:href="#aY"/></g><g id="aa"><use transform="matrix(0.1271604938271604,0,0,0.1271604938271604,0,0)" xlink:href="#bn"/><use transform="matrix(0.1271604938271604,0,0,0.1271604938271604,25.43209876543208,0)" xlink:href="#bo"/></g><g id="ab"><use transform="matrix(0.1271604938271604,0,0,0.1271604938271604,0,0)" xlink:href="#bs"/><use transform="matrix(0.1271604938271604,0,0,0.1271604938271604,25.43209876543208,0)" xlink:href="#bo"/><path fill="#8080ff" d="M-2.3 2.46h42.74v4.8H-2.3z"/></g><g id="ac"><use transform="matrix(0.1271604938271604,0,0,0.1271604938271604,0,0)" xlink:href="#bu"/><use transform="matrix(0.1271604938271604,0,0,0.1271604938271604,25.43209876543208,0)" xlink:href="#bo"/></g></defs></g></svg>